name C:\Users\u0150099\Documents\master_thesis\3dpredictsim\Results\Exo\Pog_s1_bCst_tanh100_PF_Natali2010_x10_ls150_MT_k300_MTP_T1_spx10_ig24_act_TTC.mot
datacolumns 128
datarows 4
range 1.88406052 1.92174173
endheader
time	pelvis_tilt	pelvis_list	pelvis_rotation	pelvis_tx	pelvis_ty	pelvis_tz	hip_flexion_l	hip_adduction_l	hip_rotation_l	hip_flexion_r	hip_adduction_r	hip_rotation_r	knee_angle_l	knee_angle_r	ankle_angle_l	ankle_angle_r	subtalar_angle_l	subtalar_angle_r	mtj_angle_l	mtj_angle_r	mtp_angle_l	mtp_angle_r	lumbar_extension	lumbar_bending	lumbar_rotation	arm_flex_l	arm_add_l	arm_rot_l	arm_flex_r	arm_add_r	arm_rot_r	elbow_flex_l	elbow_flex_r	pro_sup_l	pro_sup_r	glut_med1_l/activation	glut_med2_l/activation	glut_med3_l/activation	glut_min1_l/activation	glut_min2_l/activation	glut_min3_l/activation	semimem_l/activation	semiten_l/activation	bifemlh_l/activation	bifemsh_l/activation	sar_l/activation	add_long_l/activation	add_brev_l/activation	add_mag1_l/activation	add_mag2_l/activation	add_mag3_l/activation	tfl_l/activation	pect_l/activation	grac_l/activation	glut_max1_l/activation	glut_max2_l/activation	glut_max3_l/activation	iliacus_l/activation	psoas_l/activation	quad_fem_l/activation	gem_l/activation	peri_l/activation	rect_fem_l/activation	vas_med_l/activation	vas_int_l/activation	vas_lat_l/activation	med_gas_l/activation	lat_gas_l/activation	soleus_l/activation	tib_post_l/activation	flex_dig_l/activation	flex_hal_l/activation	tib_ant_l/activation	per_brev_l/activation	per_long_l/activation	per_tert_l/activation	ext_dig_l/activation	ext_hal_l/activation	ercspn_l/activation	intobl_l/activation	extobl_l/activation	glut_med1_r/activation	glut_med2_r/activation	glut_med3_r/activation	glut_min1_r/activation	glut_min2_r/activation	glut_min3_r/activation	semimem_r/activation	semiten_r/activation	bifemlh_r/activation	bifemsh_r/activation	sar_r/activation	add_long_r/activation	add_brev_r/activation	add_mag1_r/activation	add_mag2_r/activation	add_mag3_r/activation	tfl_r/activation	pect_r/activation	grac_r/activation	glut_max1_r/activation	glut_max2_r/activation	glut_max3_r/activation	iliacus_r/activation	psoas_r/activation	quad_fem_r/activation	gem_r/activation	peri_r/activation	rect_fem_r/activation	vas_med_r/activation	vas_int_r/activation	vas_lat_r/activation	med_gas_r/activation	lat_gas_r/activation	soleus_r/activation	tib_post_r/activation	flex_dig_r/activation	flex_hal_r/activation	tib_ant_r/activation	per_brev_r/activation	per_long_r/activation	per_tert_r/activation	ext_dig_r/activation	ext_hal_r/activation	ercspn_r/activation	intobl_r/activation	extobl_r/activation	
          1.88406052	         -2.92621481	          1.02900781	         -9.96433471	          2.35507565	          0.85261474	          0.00591046	         35.67184321	         -0.98437652	         -1.81803345	        -16.89417859	         -3.30864140	          7.56510973	        -16.19160039	        -13.44607605	         10.07833377	          6.59477969	         -3.99381000	         15.96217416	         -0.51796577	         -2.57483481	         -1.53198275	         13.98988665	         -0.16154778	          1.98932124	          3.65681030	        -12.59423168	        -13.47672406	          6.27565205	          1.68581550	        -13.57366986	         14.75830422	         19.89874612	         46.17454479	         86.51662706	         86.51662706	          0.05662201	          0.05000052	          0.05100420	          0.05000103	          0.05000097	          0.05000131	          0.07369606	          0.06047093	          0.06047059	          0.08843389	          0.05378174	          0.08843138	          0.06046766	          0.12487907	          0.09117596	          0.11262826	          0.07312514	          0.06046326	          0.07580562	          0.05000638	          0.08866927	          0.12237597	          0.10474205	          0.10108265	          0.19738701	          0.06157232	          0.06388241	          0.05000032	          0.05000418	          0.05017199	          0.06246427	          0.06046701	          0.06046702	          0.06046699	          0.05000374	          0.05000077	          0.05000755	          0.48536914	          0.32865489	          0.22616481	          0.11624672	          0.57746234	          0.37308045	          0.05000006	          0.17939610	          0.12933395	          0.23306556	          0.07312519	          0.07312489	          0.36870179	          0.15943587	          0.07312521	          0.05000320	          0.05000051	          0.05000027	          0.08843345	          0.10410060	          0.05000007	          0.05000009	          0.05000010	          0.05000022	          0.05000019	          0.21547512	          0.05000042	          0.05000037	          0.05000609	          0.05000296	          0.05000043	          0.23609647	          0.53611903	          0.05000012	          0.05000064	          0.05000032	          0.25302140	          0.05000017	          0.05000015	          0.05000011	          0.17396951	          0.25137259	          0.05000002	          0.14957415	          0.16046822	          0.21520281	          0.05000003	          0.47747117	          0.36166630	          0.05000051	          0.12599724	          0.05000016	          0.05000000	          0.05000001	          0.05000165	
          1.89662093	         -2.93017645	          1.00245831	        -10.12511404	          2.37568454	          0.85141226	          0.00550833	         35.37527770	         -0.77789868	         -1.78144719	        -17.69957058	         -3.70418183	          7.60026412	        -16.85056158	        -13.68520084	          9.31190814	          3.16993467	         -4.23831626	         16.49053411	         -0.50621730	         -3.66399750	         -1.55351880	         17.84662509	          0.08582358	          1.75147424	          3.78240430	        -14.16026610	        -13.47629787	          6.24391578	          1.17472477	        -13.65602745	         15.15291670	         19.72480627	         47.71182502	         86.51662706	         86.51662706	          0.05000017	          0.05000731	          0.12206156	          0.05000035	          0.05000063	          0.05020384	          0.06093910	          0.05000332	          0.05000300	          0.07312579	          0.07312501	          0.07312378	          0.05000061	          0.10326244	          0.15804665	          0.14001993	          0.06046715	          0.05000109	          0.06268360	          0.05000070	          0.09099469	          0.12875589	          0.08661095	          0.08358500	          0.24152727	          0.05091465	          0.07226211	          0.07312459	          0.16668096	          0.16304829	          0.15450024	          0.05000002	          0.05000004	          0.05000000	          0.05000154	          0.06376559	          0.06046828	          0.62249417	          0.32645945	          0.28085208	          0.49476111	          0.65367595	          0.47292315	          0.05000000	          0.14834215	          0.10694590	          0.19272136	          0.06046707	          0.06046694	          0.30487863	          0.13183715	          0.06046714	          0.06046633	          0.06046753	          0.06046722	          0.07312545	          0.08608067	          0.08722596	          0.13879111	          0.07152847	          0.06046720	          0.10690678	          0.17817584	          0.05843095	          0.06046698	          0.05000965	          0.05000496	          0.05000994	          0.19522756	          0.44331541	          0.05000239	          0.06046430	          0.06046696	          0.20922273	          0.05000026	          0.05000036	          0.05000037	          0.14385492	          0.20785932	          0.05000000	          0.12368247	          0.13269083	          0.17795069	          0.20781220	          0.45347887	          0.33914134	          0.34357697	          0.25865667	          0.21231167	          0.05000018	          0.06046701	          0.06046701	
          1.90918133	         -2.92720881	          0.99356252	        -10.23341891	          2.39636458	          0.85006223	          0.00510561	         35.05812494	         -0.53672064	         -1.69378338	        -18.22518605	         -4.04530190	          7.63141676	        -18.28700762	        -14.42739447	          8.15439448	         -0.20245580	         -4.45223283	         16.91729172	         -0.57840577	         -4.52830525	         -1.50913291	         20.83481518	          0.32485318	          1.46857258	          3.88851710	        -15.64996121	        -13.49109984	          6.37265008	          0.63592147	        -13.73992256	         15.51094875	         19.45606257	         49.17332240	         86.51662706	         86.51662706	          0.18316366	          0.48295500	          0.52217401	          0.17224771	          0.16778012	          0.44166389	          0.06271994	          0.05000039	          0.06928544	          0.06046757	          0.06046706	          0.06046718	          0.08889591	          0.08538765	          0.13068856	          0.18218047	          0.05000029	          0.06046854	          0.07312369	          0.34605416	          0.28888147	          0.25454888	          0.07161837	          0.06911622	          0.19971842	          0.20770194	          0.30769219	          0.06046654	          0.13782874	          0.13483815	          0.16887812	          0.05478869	          0.06007953	          0.06002769	          0.05000005	          0.05272777	          0.05000239	          0.72215110	          0.47409335	          0.23282711	          0.72501877	          0.74458519	          0.64739901	          0.06144898	          0.12266373	          0.08843328	          0.29707396	          0.05000011	          0.05000001	          0.25210746	          0.10901585	          0.05000018	          0.05000163	          0.05000052	          0.05000024	          0.06046727	          0.07118003	          0.12026593	          0.12260409	          0.05914739	          0.05000099	          0.08840114	          0.14733323	          0.05021717	          0.05000028	          0.05000088	          0.05000060	          0.05000033	          0.16143383	          0.52585618	          0.05000004	          0.05000016	          0.05000002	          0.17300573	          0.08335961	          0.07224683	          0.06019561	          0.11895324	          0.17187831	          0.05000001	          0.10227273	          0.10972182	          0.14714706	          0.25099170	          0.37498118	          0.28043574	          0.44753897	          0.42499590	          0.17555999	          0.11283818	          0.05000001	          0.05000022	
          1.92174173	         -2.92361305	          1.02323702	        -10.28026955	          2.41644455	          0.84903933	          0.00465620	         34.97336792	         -0.25586434	         -1.61915232	        -18.35532672	         -4.33291686	          7.63698943	        -20.09728841	        -15.77025790	          6.42384696	         -3.32907622	         -4.59732085	         17.20576934	         -0.59485696	         -4.92807340	         -1.46413990	         21.88788304	          0.50517326	          1.12218257	          3.97409362	        -16.89265985	        -13.50655570	          6.69752599	          0.20912164	        -13.77774182	         15.84917023	         18.95973864	         50.37701085	         86.51662706	         86.51662706	          0.30606553	          0.47463023	          0.43178452	          0.14243156	          0.22345786	          0.36521077	          0.05186298	          0.06052521	          0.05729198	          0.05000056	          0.05000022	          0.05000019	          0.07350782	          0.19200376	          0.23069540	          0.21031210	          0.05000075	          0.05000152	          0.06046640	          0.32755008	          0.30888323	          0.28626918	          0.05922105	          0.05715204	          0.27359660	          0.17174824	          0.25442991	          0.05000004	          0.36956926	          0.34296579	          0.35257126	          0.05000000	          0.05000001	          0.05000000	          0.05000002	          0.05000030	          0.05000016	          0.84877815	          0.53914045	          0.28343883	          0.85033889	          0.86098787	          0.53533301	          0.08003980	          0.10143031	          0.07312524	          0.24564969	          0.05000022	          0.05000010	          0.20846706	          0.09014500	          0.05000058	          0.05000451	          0.05000021	          0.05000028	          0.05000029	          0.05885882	          0.23142888	          0.14353105	          0.16916599	          0.06235633	          0.10880318	          0.12182954	          0.05000231	          0.05000032	          0.05000198	          0.05000136	          0.05000069	          0.13348924	          0.51618433	          0.05000008	          0.05000065	          0.05000358	          0.14305805	          0.12502059	          0.12933302	          0.10694617	          0.09836211	          0.14212572	          0.05000002	          0.08897386	          0.09072953	          0.12167619	          0.30927843	          0.31007095	          0.23189158	          0.37006891	          0.35142797	          0.14517033	          0.16898545	          0.05000001	          0.05000001	
